# xmcd CD database file
# Copyright (C) 1993-1996 Ti Kan
#
# Track frame offsets:
# 150
# 21662
# 41297
# 60147
# 78557
# 93740
# 115765
# 132810
# 151202
# 166370
# 185462
#
# Disc length: 2750 seconds
#
# Revision: 0
# Processed by: cddbd v1.4b41PL1 Copyright (c) Steve Scherf et al.
# Submitted via: inCDius 1.1b3
#
DISCID=840abc0b
DTITLE=Lisa Miller - Quiet Girl with a Credit Card
DYEAR=1900
DGENRE=
TTITLE0=Big American Car
TTITLE1=You're a Big Girl Now
TTITLE2=Guitar Boat
TTITLE3=Nobody's an Angel
TTITLE4=I'm Gonna Live My Life (I'm Gonna Take My Time)
TTITLE5=Hang My Head
TTITLE6=Woman Left Lonely
TTITLE7=False Waltz
TTITLE8=Long Wide Road
TTITLE9=Too Dark to See
TTITLE10=Big Small Town
EXTD=
EXTT0=
EXTT1=
EXTT2=
EXTT3=
EXTT4=
EXTT5=
EXTT6=
EXTT7=
EXTT8=
EXTT9=
EXTT10=
PLAYORDER=
